<svg xmlns="http://www.w3.org/2000/svg" width="680" height="309" viewBox="0 0 680 309">
<g>
<path d="M 87.00 238.51 C87.00,243.18 86.64,247.00 86.21,247.00 C85.77,247.00 84.22,244.39 82.75,241.19 C75.81,226.06 61.65,209.25 48.50,200.49 L 42.50 196.50 L 189.15 195.50 L 192.58 191.76 L 196.00 188.03 L 196.00 150.76 C196.00,130.27 196.30,101.69 196.66,87.25 L 197.32 61.00 L 177.56 61.00 L 184.73 57.56 C200.93,49.80 216.14,37.34 224.68,24.84 C227.25,21.08 229.74,18.00 230.21,18.00 C231.31,18.00 230.70,190.72 229.59,193.75 L 228.77 196.00 L 284.93 196.00 L 288.44 192.92 C290.41,191.19 292.40,188.23 292.97,186.17 C293.53,184.15 293.99,174.51 293.99,164.75 L 294.00 147.00 L 274.50 146.96 L 283.84 142.00 C288.98,139.27 295.96,135.06 299.34,132.63 C306.85,127.25 319.54,114.21 323.55,107.75 C325.17,105.14 326.87,103.00 327.32,103.00 C328.39,103.00 327.69,191.94 326.61,194.25 C325.84,195.89 327.46,196.00 353.51,196.00 L 381.24 196.00 L 389.00 188.24 L 389.00 147.08 L 379.75 146.79 L 370.50 146.50 L 376.29 143.79 C394.17,135.41 410.80,120.97 421.72,104.36 C422.68,102.88 422.89,112.20 422.72,149.25 L 422.50 196.00 L 531.00 196.00 L 531.00 207.34 L 537.25 201.17 C547.92,190.64 559.04,183.80 574.91,177.98 L 582.33 175.27 L 576.91 173.48 C562.03,168.55 549.23,160.96 538.13,150.48 L 531.00 143.76 L 531.00 155.00 L 491.00 155.00 C469.00,155.00 451.00,154.66 451.00,154.25 C451.00,153.84 453.14,152.16 455.75,150.51 C467.83,142.92 483.22,124.92 490.61,109.75 C492.16,106.59 493.75,104.00 494.17,104.00 C494.58,104.00 495.05,107.71 495.21,112.25 L 495.50 120.50 L 528.00 121.01 C558.68,121.49 560.81,121.64 566.00,123.75 C576.89,128.17 588.70,138.09 593.99,147.25 C602.69,162.32 603.66,182.26 596.48,198.50 C591.50,209.76 578.57,221.55 565.50,226.73 L 558.50 229.50 L 87.00 230.02 Z" fill="rgb(2,49,117)"/>
<path d="M 104.55 168.08 C104.86,168.58 104.74,169.65 104.29,170.45 C103.67,171.56 102.74,170.63 100.58,166.71 C96.74,159.78 89.52,151.32 84.26,147.62 C81.92,145.97 80.00,144.25 80.00,143.81 C80.00,143.36 84.69,143.00 90.42,143.00 L 100.84 143.00 L 100.31 133.75 C99.86,125.79 100.10,123.68 102.01,118.62 C103.24,115.38 105.80,111.01 107.70,108.91 C111.93,104.23 121.56,99.26 128.07,98.40 L 132.90 97.76 L 133.20 93.13 L 133.50 88.50 L 137.22 95.11 C141.56,102.82 148.15,110.45 153.94,114.46 C156.19,116.02 157.83,117.50 157.58,117.76 C156.96,118.37 150.81,118.72 137.90,118.87 C129.35,118.98 126.93,119.34 125.35,120.75 C119.78,125.72 118.59,131.18 121.89,136.58 C124.98,141.65 129.23,143.00 142.15,143.01 L 153.50 143.02 L 156.94 151.26 C158.83,155.79 160.78,160.04 161.27,160.71 C163.48,163.66 160.59,164.00 133.05,164.00 C108.53,164.00 105.14,164.19 104.60,165.59 C104.27,166.46 104.24,167.59 104.55,168.08 ZM 419.26 279.76 L 407.00 267.53 L 394.24 280.26 L 381.47 293.00 L 368.50 280.00 L 355.53 267.00 L 368.00 254.50 C374.86,247.63 380.92,242.00 381.47,242.00 C382.02,242.00 387.99,247.51 394.74,254.24 L 407.00 266.47 L 419.26 254.24 C426.01,247.51 432.00,242.00 432.58,242.00 C434.03,242.00 457.00,265.84 457.00,267.33 C457.00,268.75 433.91,292.00 432.50,292.00 C431.97,292.00 426.01,286.49 419.26,279.76 ZM 333.71 81.22 L 320.93 68.60 L 308.20 81.30 L 295.47 94.00 L 282.50 81.00 L 269.53 68.00 L 282.00 55.50 C288.86,48.63 294.87,43.00 295.36,43.00 C295.85,43.00 301.61,48.29 308.17,54.75 C314.72,61.21 320.31,66.70 320.58,66.95 C320.85,67.20 326.63,61.86 333.42,55.08 C340.21,48.30 346.18,42.92 346.67,43.13 C347.16,43.33 352.89,49.00 359.40,55.72 L 371.23 67.95 L 358.86 80.90 L 346.50 93.84 ZM 532.16 280.30 C525.64,286.74 519.90,292.00 519.39,292.00 C518.89,292.00 512.86,286.38 506.00,279.50 L 493.53 267.00 L 506.00 254.50 C512.86,247.62 518.77,242.00 519.13,242.00 C520.67,242.00 544.00,265.36 544.00,266.90 C544.00,267.84 538.67,273.87 532.16,280.30 Z" fill="rgb(246,148,6)"/>
<path d="M 0.00 154.50 L 0.00 0.00 L 340.00 0.00 L 680.00 0.00 L 680.00 154.50 L 680.00 309.00 L 340.00 309.00 L 0.00 309.00 L 0.00 154.50 ZM 419.26 279.76 C426.01,286.49 431.97,292.00 432.50,292.00 C433.91,292.00 457.00,268.75 457.00,267.33 C457.00,265.84 434.03,242.00 432.58,242.00 C432.00,242.00 426.01,247.51 419.26,254.24 L 407.00 266.47 L 394.74 254.24 C387.99,247.51 382.02,242.00 381.47,242.00 C380.92,242.00 374.86,247.63 368.00,254.50 L 355.53 267.00 L 368.50 280.00 L 381.47 293.00 L 394.24 280.26 L 407.00 267.53 L 419.26 279.76 ZM 532.16 280.30 C538.67,273.87 544.00,267.84 544.00,266.90 C544.00,265.36 520.67,242.00 519.13,242.00 C518.77,242.00 512.86,247.62 506.00,254.50 L 493.53 267.00 L 506.00 279.50 C512.86,286.38 518.89,292.00 519.39,292.00 C519.90,292.00 525.64,286.74 532.16,280.30 ZM 87.00 238.51 L 87.00 230.02 L 322.75 229.76 L 558.50 229.50 L 565.50 226.73 C578.57,221.55 591.50,209.76 596.48,198.50 C603.66,182.26 602.69,162.32 593.99,147.25 C588.70,138.09 576.89,128.17 566.00,123.75 C560.81,121.64 558.68,121.49 528.00,121.01 L 495.50 120.50 L 495.21 112.25 C495.05,107.71 494.58,104.00 494.17,104.00 C493.75,104.00 492.16,106.59 490.61,109.75 C483.22,124.92 467.83,142.92 455.75,150.51 C453.14,152.16 451.00,153.84 451.00,154.25 C451.00,154.66 469.00,155.00 491.00,155.00 L 531.00 155.00 L 531.00 149.38 L 531.00 143.76 L 538.13 150.48 C549.23,160.96 562.03,168.55 576.91,173.48 L 582.33 175.27 L 574.91 177.98 C559.04,183.80 547.92,190.64 537.25,201.17 L 531.00 207.34 L 531.00 201.67 L 531.00 196.00 L 476.75 196.00 L 422.50 196.00 L 422.72 149.25 C422.89,112.20 422.68,102.88 421.72,104.36 C410.80,120.97 394.17,135.41 376.29,143.79 L 370.50 146.50 L 379.75 146.79 L 389.00 147.08 L 389.00 167.66 L 389.00 188.24 L 385.12 192.12 L 381.24 196.00 L 353.51 196.00 C327.46,196.00 325.84,195.89 326.61,194.25 C327.69,191.94 328.39,103.00 327.32,103.00 C326.87,103.00 325.17,105.14 323.55,107.75 C319.54,114.21 306.85,127.25 299.34,132.63 C295.96,135.06 288.98,139.27 283.84,142.00 L 274.50 146.96 L 284.25 146.98 L 294.00 147.00 L 293.99 164.75 C293.99,174.51 293.53,184.15 292.97,186.17 C292.40,188.23 290.41,191.19 288.44,192.92 L 284.93 196.00 L 256.85 196.00 L 228.77 196.00 L 229.59 193.75 C230.70,190.72 231.31,18.00 230.21,18.00 C229.74,18.00 227.25,21.08 224.68,24.84 C216.14,37.34 200.93,49.80 184.73,57.56 L 177.56 61.00 L 187.44 61.00 L 197.32 61.00 L 196.66 87.25 C196.30,101.69 196.00,130.27 196.00,150.76 L 196.00 188.03 L 192.58 191.76 L 189.15 195.50 L 115.83 196.00 L 42.50 196.50 L 48.50 200.49 C61.65,209.25 75.81,226.06 82.75,241.19 C84.22,244.39 85.77,247.00 86.21,247.00 C86.64,247.00 87.00,243.18 87.00,238.51 ZM 104.55 168.08 C104.24,167.59 104.27,166.46 104.60,165.59 C105.14,164.19 108.53,164.00 133.05,164.00 C160.59,164.00 163.48,163.66 161.27,160.71 C160.78,160.04 158.83,155.79 156.94,151.26 L 153.50 143.02 L 142.15 143.01 C129.23,143.00 124.98,141.65 121.89,136.58 C118.59,131.18 119.78,125.72 125.35,120.75 C126.93,119.34 129.35,118.98 137.90,118.87 C150.81,118.72 156.96,118.37 157.58,117.76 C157.83,117.50 156.19,116.02 153.94,114.46 C148.15,110.45 141.56,102.82 137.22,95.11 L 133.50 88.50 L 133.20 93.13 L 132.90 97.76 L 128.07 98.40 C121.56,99.26 111.93,104.23 107.70,108.91 C105.80,111.01 103.24,115.38 102.01,118.62 C100.10,123.68 99.86,125.79 100.31,133.75 L 100.84 143.00 L 90.42 143.00 C84.69,143.00 80.00,143.36 80.00,143.81 C80.00,144.25 81.92,145.97 84.26,147.62 C89.52,151.32 96.74,159.78 100.58,166.71 C102.74,170.63 103.67,171.56 104.29,170.45 C104.74,169.65 104.86,168.58 104.55,168.08 ZM 333.71 81.22 L 346.50 93.84 L 358.86 80.90 L 371.23 67.95 L 359.40 55.72 C352.89,49.00 347.16,43.33 346.67,43.13 C346.18,42.92 340.21,48.30 333.42,55.08 C326.63,61.86 320.85,67.20 320.58,66.95 C320.31,66.70 314.72,61.21 308.17,54.75 C301.61,48.29 295.85,43.00 295.36,43.00 C294.87,43.00 288.86,48.63 282.00,55.50 L 269.53 68.00 L 282.50 81.00 L 295.47 94.00 L 308.20 81.30 L 320.93 68.60 L 333.71 81.22 Z" fill="rgb(253,254,253)"/>
</g>
</svg>